<?xml version="1.0" encoding="utf-8"?>
<!-- Generator: Adobe Illustrator 27.3.1, SVG Export Plug-In . SVG Version: 6.00 Build 0)  -->
<svg version="1.1" id="Layer_1" xmlns="http://www.w3.org/2000/svg" xmlns:xlink="http://www.w3.org/1999/xlink" x="0px" y="0px"
	 viewBox="0 0 296 426" style="enable-background:new 0 0 296 426;" xml:space="preserve">
<style type="text/css">
	.st0{fill:none;stroke:#000000;stroke-width:3;stroke-miterlimit:10;}
	.st1{stroke:#000000;stroke-width:3;stroke-miterlimit:10;}
	.st2{font-family:'ArialMT';}
	.st3{font-size:44.9955px;}
	.st4{font-size:26.2305px;}
	.st5{fill:#D5E8D4;stroke:#82B366;stroke-width:3;}
	.st6{font-size:47.6919px;}
	.st7{fill:#DAE8FC;stroke:#6C8EBF;stroke-width:3;}
</style>
<g>
	<path pointer-events="stroke" class="st0" d="M207.7,316.2V126.5"/>
	<path pointer-events="all" class="st1" d="M207.7,110.9l10.3,20.9l-10.3-5.2l-10.3,5.2L207.7,110.9z"/>
	<g transform="translate(-0.5 -0.5)scale(3)">
		<text transform="matrix(0.3277 0 0 0.3333 75.9222 67.6276)" class="st2 st3">k</text>
		<text transform="matrix(0.3277 0 0 0.3333 83.2946 72.6227)" class="st2 st4">off</text>
	</g>
	<rect x="31.9" y="316.2" pointer-events="all" class="st5" width="234.4" height="89.4"/>
	<g transform="translate(-0.5 -0.5)scale(3)">
		<text transform="matrix(0.3277 0 0 0.3333 25.3983 125.2777)" class="st2 st6">DNA-P</text>
	</g>
	<path pointer-events="stroke" class="st0" d="M266.3,360.9"/>
	<path pointer-events="stroke" class="st0" d="M207.7,18.1"/>
	<rect x="31.9" y="18.1" pointer-events="all" class="st7" width="234.4" height="89.4"/>
	<g transform="translate(-0.5 -0.5)scale(3)">
		<text transform="matrix(0.3277 0 0 0.3333 19.5262 25.9095)" class="st2 st6">DNA + P</text>
	</g>
	<path pointer-events="stroke" class="st0" d="M90.5,107.5v189.7"/>
	<path pointer-events="all" class="st1" d="M90.5,312.9L80.3,292l10.3,5.2l10.3-5.2L90.5,312.9z"/>
	<g transform="translate(-0.5 -0.5)scale(3)">
		<text transform="matrix(0.3277 0 0 0.3333 7.1852 67.6276)" class="st2 st3">k</text>
		<text transform="matrix(0.3277 0 0 0.3333 14.5576 72.6227)" class="st2 st4">on</text>
	</g>
</g>
</svg>
